<svg xmlns="http://www.w3.org/2000/svg" width="600" height="400" viewBox="0 0 600 400" fill="none">
  <rect width="600" height="400" fill="white"/>
  <circle cx="300" cy="200" r="150" fill="#EDF2F4"/>
  <path d="M300 100C244.772 100 200 144.772 200 200C200 255.228 244.772 300 300 300C355.228 300 400 255.228 400 200C400 144.772 355.228 100 300 100ZM300 280C255.817 280 220 244.183 220 200C220 155.817 255.817 120 300 120C344.183 120 380 155.817 380 200C380 244.183 344.183 280 300 280Z" fill="#4361EE"/>
  <rect x="290" y="150" width="20" height="100" rx="10" fill="#4361EE"/>
  <rect x="250" y="190" width="100" height="20" rx="10" fill="#4361EE"/>
  <path d="M180 140C180 128.954 188.954 120 200 120H240V160H200C188.954 160 180 151.046 180 140Z" fill="#4CC9F0"/>
  <path d="M420 140C420 128.954 411.046 120 400 120H360V160H400C411.046 160 420 151.046 420 140Z" fill="#4CC9F0"/>
  <path d="M180 260C180 248.954 188.954 240 200 240H240V280H200C188.954 280 180 271.046 180 260Z" fill="#4CC9F0"/>
  <path d="M420 260C420 248.954 411.046 240 400 240H360V280H400C411.046 280 420 271.046 420 260Z" fill="#4CC9F0"/>
  <circle cx="150" cy="120" r="20" fill="#F72585"/>
  <circle cx="450" cy="120" r="20" fill="#F72585"/>
  <circle cx="150" cy="280" r="20" fill="#F72585"/>
  <circle cx="450" cy="280" r="20" fill="#F72585"/>
</svg>

